<svg width="892" height="918" viewBox="0 0 892 918" fill="none" xmlns="http://www.w3.org/2000/svg">
<path fill-rule="evenodd" clip-rule="evenodd" d="M446.499 917.585C446.831 917.861 447 918 447 918V917.167C470.273 897.719 891.984 541.553 891.984 269.546C892.606 208.513 874.519 149.09 840.745 101.211C806.971 53.332 759.558 19.8987 706.432 6.50035C653.306 -6.89805 597.687 0.550413 548.872 27.6006C523.241 41.8035 472.601 76.0595 446.499 149.832C420.339 76.0595 369.585 41.8035 343.897 27.6006C294.973 0.550413 239.229 -6.89805 185.984 6.50035C132.739 19.8987 85.2197 53.332 51.3701 101.211C17.5206 149.09 -0.607826 208.513 0.0155567 269.546C0.0155567 541.561 422.699 897.741 446 917.169V918C446 918 446.169 917.861 446.499 917.585Z" fill="#EB2828"/>
</svg>
