<svg width="966" height="469" viewBox="0 0 966 469" fill="none" xmlns="http://www.w3.org/2000/svg">
<path fill-rule="evenodd" clip-rule="evenodd" d="M25.5 284.5C116.333 172.333 318.8 -34.9 402 33.5L456.5 44L478 69.5L575 22L662.5 33.5L784.5 109.5L943.5 284.5L662.5 407L514 448.5L334 424L25.5 284.5ZM243 251.87L325.5 213.881L381 167L480 188.824L582.5 167L644.5 223.58L719 251.87L582.5 287.435L480 323L243 251.87Z" fill="#EB2828"/>
<path fill-rule="evenodd" clip-rule="evenodd" d="M944.145 280.891C919.954 258.545 894.974 231.256 869.053 202.884L868.034 201.769C842.237 173.532 815.503 144.269 787.655 117.737C731.209 63.9563 670.292 21.5 603.5 21.5C578.443 21.5 550.644 29.8462 527.978 40.949C516.649 46.4989 506.617 52.7302 498.863 58.9372C491.095 65.1552 485.664 71.3087 483.463 76.6893L483 76.5L482.538 76.6894C480.336 71.3088 474.906 65.1553 467.138 58.9373C459.384 52.7303 449.352 46.499 438.022 40.9491C415.356 29.8463 387.558 21.5001 362.5 21.5001C295.709 21.5 234.792 63.9564 178.345 117.737C150.498 144.269 123.763 173.532 97.9663 201.769L96.9476 202.884C71.0263 231.256 46.047 258.545 21.8558 280.891C73.8169 308.716 158.869 350.265 245.973 384.91C333.446 419.703 422.907 447.5 483 447.5C543.094 447.5 632.554 419.703 720.028 384.91C807.131 350.265 892.184 308.716 944.145 280.891ZM467.763 58.1566C475.09 64.0218 480.466 69.9162 483 75.2634C485.535 69.9162 490.911 64.0217 498.238 58.1565C506.06 51.8948 516.157 45.6261 527.539 40.051C550.295 28.9038 578.246 20.5 603.5 20.5C670.709 20.5 731.875 63.2102 788.345 117.013C816.217 143.569 842.971 172.853 868.76 201.081L868.762 201.083L869.791 202.21C895.904 230.791 921.025 258.233 945.339 280.632L945.856 281.108L945.237 281.441C893.306 309.281 807.889 351.04 720.398 385.84C632.93 420.63 543.307 448.5 483 448.5C422.694 448.5 333.071 420.63 245.603 385.84C158.112 351.04 72.6944 309.281 20.7641 281.441L20.1445 281.109L20.6615 280.632C44.976 258.233 70.0964 230.792 96.2093 202.21L97.2387 201.083C123.028 172.854 149.782 143.569 177.655 117.013C234.125 63.2103 295.292 20.5 362.5 20.5001C387.754 20.5001 415.706 28.9039 438.462 40.0511C449.843 45.6262 459.94 51.8949 467.763 58.1566ZM397.935 172.501C381.531 172.402 366.303 178.309 352.398 196.522C346.725 203.953 336.128 211.051 322.756 217.653C309.369 224.263 293.138 230.405 276.129 235.901C243.777 246.353 208.572 254.477 184.688 259.022L337.044 272.26L337.099 272.264L337.152 272.281L483.001 318.476L628.85 272.281L628.902 272.264L628.957 272.26L781.313 259.022C757.429 254.477 722.224 246.353 689.872 235.901C672.864 230.405 656.632 224.263 643.245 217.653C629.873 211.051 619.277 203.953 613.603 196.522C599.698 178.309 584.471 172.402 568.066 172.501C552.971 172.592 536.873 177.763 519.826 183.238C518.28 183.735 516.726 184.234 515.164 184.732L483.176 196.687L483.001 196.219L482.826 196.687L450.837 184.732C449.275 184.234 447.721 183.735 446.175 183.238C429.128 177.763 413.03 172.592 397.935 172.501ZM482.85 319.477L483.001 319L483.152 319.477L629.099 273.251L785.044 259.702L785.091 258.712C761.273 254.33 724.145 245.923 690.179 234.949C673.196 229.462 657.015 223.336 643.688 216.756C630.344 210.168 619.925 203.154 614.398 195.915C600.303 177.454 584.781 171.401 568.06 171.501C552.803 171.593 536.555 176.813 519.55 182.276L519.547 182.277C517.987 182.778 516.421 183.282 514.849 183.783L514.837 183.787L514.826 183.791L483.001 195.685L451.176 183.791L451.164 183.787L451.153 183.783C449.58 183.282 448.014 182.778 446.454 182.277L446.451 182.276C429.446 176.813 413.198 171.593 397.941 171.501C381.221 171.401 365.698 177.454 351.603 195.915C346.077 203.154 335.657 210.168 322.314 216.756C308.986 223.336 292.805 229.462 275.822 234.949C241.856 245.923 204.728 254.33 180.91 258.712L180.957 259.702L336.902 273.251L482.85 319.477Z" fill="#EB2828"/>
<path d="M869.053 202.884L883.819 189.394L883.819 189.394L869.053 202.884ZM944.145 280.891L953.586 298.522C959.29 295.468 963.164 289.843 963.984 283.425C964.803 277.008 962.468 270.59 957.716 266.2L944.145 280.891ZM868.034 201.769L853.269 215.259L853.269 215.259L868.034 201.769ZM787.655 117.737L773.859 132.217L787.655 117.737ZM603.5 21.5L603.5 41.5L603.5 21.5ZM527.978 40.949L519.18 22.9881L519.18 22.9882L527.978 40.949ZM498.863 58.9372L486.364 43.3236L486.364 43.3236L498.863 58.9372ZM483.463 76.6893L475.89 95.2002C480.8 97.2086 486.306 97.1845 491.198 95.1332C496.089 93.0819 499.966 89.1714 501.974 84.262L483.463 76.6893ZM483 76.5L490.573 57.9892C485.72 56.0037 480.281 56.0037 475.428 57.9891L483 76.5ZM482.538 76.6894L464.027 84.262C468.209 94.4853 479.887 99.3826 490.11 95.2004L482.538 76.6894ZM467.138 58.9373L479.637 43.3237L479.636 43.3237L467.138 58.9373ZM438.022 40.9491L446.82 22.9882L446.82 22.9882L438.022 40.9491ZM362.5 21.5001L362.5 41.5001L362.5 21.5001ZM178.345 117.737L164.549 103.257L164.549 103.257L178.345 117.737ZM97.9663 201.769L112.732 215.259L112.732 215.259L97.9663 201.769ZM96.9476 202.884L111.713 216.374L111.713 216.374L96.9476 202.884ZM21.8558 280.891L8.28503 266.2C3.53244 270.59 1.19712 277.008 2.01699 283.426C2.83686 289.843 6.71064 295.468 12.4142 298.522L21.8558 280.891ZM245.973 384.91L238.581 403.494L238.581 403.494L245.973 384.91ZM483 447.5L483 427.5L483 427.5L483 447.5ZM720.028 384.91L712.636 366.326L712.636 366.326L720.028 384.91ZM483 75.2634L464.928 83.8296C468.237 90.8121 475.273 95.2634 483 95.2634C490.727 95.2634 497.763 90.8121 501.073 83.8296L483 75.2634ZM467.763 58.1566L455.264 73.7702L455.264 73.7703L467.763 58.1566ZM498.238 58.1565L510.736 73.7702L510.736 73.7701L498.238 58.1565ZM527.539 40.051L518.74 22.0901L518.74 22.0901L527.539 40.051ZM603.5 20.5L603.5 0.5L603.5 0.5L603.5 20.5ZM788.345 117.013L802.141 102.533L802.141 102.533L788.345 117.013ZM868.76 201.081L883.559 187.627C883.548 187.615 883.537 187.603 883.526 187.591L868.76 201.081ZM868.762 201.083L853.963 214.536C853.974 214.548 853.985 214.561 853.996 214.573L868.762 201.083ZM869.791 202.21L855.026 215.699L855.026 215.7L869.791 202.21ZM945.339 280.632L931.788 295.342L931.789 295.342L945.339 280.632ZM945.856 281.108L955.307 298.735C961.011 295.676 964.883 290.046 965.697 283.624C966.511 277.202 964.167 270.784 959.406 266.398L945.856 281.108ZM945.237 281.441L954.686 299.067L954.687 299.067L945.237 281.441ZM720.398 385.84L727.789 404.423L727.789 404.423L720.398 385.84ZM483 448.5L483 428.5L483 428.5L483 448.5ZM245.603 385.84L238.211 404.424L238.211 404.424L245.603 385.84ZM20.7641 281.441L11.3137 299.067L11.3141 299.067L20.7641 281.441ZM20.1445 281.109L6.5938 266.399C1.83302 270.784 -0.510867 277.203 0.303412 283.624C1.11769 290.046 4.98943 295.676 10.6942 298.735L20.1445 281.109ZM20.6615 280.632L34.2123 295.342L34.2125 295.342L20.6615 280.632ZM96.2093 202.21L110.975 215.7L110.975 215.7L96.2093 202.21ZM97.2387 201.083L112.004 214.573L112.004 214.573L97.2387 201.083ZM177.655 117.013L191.451 131.493L191.451 131.493L177.655 117.013ZM362.5 20.5001L362.5 0.500092L362.5 0.500092L362.5 20.5001ZM438.462 40.0511L447.26 22.0902L447.26 22.0902L438.462 40.0511ZM352.398 196.522L336.501 184.386L336.501 184.386L352.398 196.522ZM397.935 172.501L398.055 152.502L398.055 152.502L397.935 172.501ZM322.756 217.653L331.611 235.586L331.611 235.586L322.756 217.653ZM276.129 235.901L282.278 254.932L282.278 254.932L276.129 235.901ZM184.688 259.022L180.949 239.375C171.138 241.242 164.207 250.061 164.713 260.036C165.22 270.01 173.007 278.083 182.957 278.947L184.688 259.022ZM337.044 272.26L335.313 292.184L335.314 292.185L337.044 272.26ZM337.099 272.264L343.136 253.197C341.736 252.754 340.291 252.466 338.828 252.339L337.099 272.264ZM337.152 272.281L343.191 253.214L343.189 253.214L337.152 272.281ZM483.001 318.476L476.962 337.542C480.891 338.787 485.11 338.787 489.04 337.542L483.001 318.476ZM628.85 272.281L634.889 291.348L634.893 291.346L628.85 272.281ZM628.902 272.264L627.174 252.339C625.708 252.466 624.261 252.755 622.859 253.199L628.902 272.264ZM628.957 272.26L630.686 292.185L630.688 292.184L628.957 272.26ZM781.313 259.022L783.045 278.947C792.995 278.083 800.782 270.01 801.288 260.036C801.794 250.061 794.864 241.242 785.052 239.375L781.313 259.022ZM689.872 235.901L683.723 254.932L683.723 254.932L689.872 235.901ZM643.245 217.653L634.391 235.586L634.391 235.586L643.245 217.653ZM613.603 196.522L629.5 184.386L629.5 184.386L613.603 196.522ZM568.066 172.501L567.946 152.502L567.946 152.502L568.066 172.501ZM519.826 183.238L525.943 202.28L525.943 202.28L519.826 183.238ZM515.164 184.732L509.087 165.678C508.777 165.777 508.468 165.883 508.163 165.998L515.164 184.732ZM483.176 196.687L464.441 203.689C468.308 214.035 479.831 219.288 490.177 215.421L483.176 196.687ZM483.001 196.219L501.735 189.217C498.813 181.4 491.346 176.219 483.001 176.219C474.656 176.219 467.188 181.4 464.266 189.217L483.001 196.219ZM482.826 196.687L475.824 215.421C486.171 219.288 497.693 214.035 501.56 203.689L482.826 196.687ZM450.837 184.732L457.839 165.998C457.533 165.883 457.225 165.777 456.914 165.678L450.837 184.732ZM446.175 183.238L440.059 202.28L440.059 202.28L446.175 183.238ZM483.001 319L502.067 312.961C499.434 304.649 491.72 299 483.001 299C474.281 299 466.567 304.649 463.934 312.961L483.001 319ZM482.85 319.477L476.811 338.543C487.341 341.878 498.581 336.046 501.916 325.516L482.85 319.477ZM483.152 319.477L464.085 325.516C467.42 336.046 478.66 341.878 489.191 338.543L483.152 319.477ZM629.099 273.251L627.368 253.326C625.905 253.453 624.46 253.741 623.06 254.185L629.099 273.251ZM785.044 259.702L786.775 279.627C796.748 278.76 804.545 270.654 805.021 260.654L785.044 259.702ZM785.091 258.712L805.068 259.664C805.545 249.665 798.555 240.854 788.71 239.042L785.091 258.712ZM690.179 234.949L684.03 253.98L684.03 253.98L690.179 234.949ZM643.688 216.756L652.542 198.823L652.542 198.823L643.688 216.756ZM614.398 195.915L598.501 208.052L598.501 208.052L614.398 195.915ZM568.06 171.501L568.18 191.501L568.18 191.501L568.06 171.501ZM519.55 182.276L513.432 163.235C513.427 163.237 513.422 163.238 513.416 163.24L519.55 182.276ZM519.547 182.277L525.665 201.319C525.67 201.317 525.676 201.315 525.681 201.313L519.547 182.277ZM514.849 183.783L520.911 202.842C520.916 202.841 520.92 202.839 520.925 202.838L514.849 183.783ZM514.837 183.787L508.775 164.728C508.46 164.828 508.147 164.936 507.836 165.052L514.837 183.787ZM514.826 183.791L507.825 165.056L507.824 165.057L514.826 183.791ZM483.001 195.685L475.999 214.419C480.514 216.107 485.487 216.107 490.002 214.419L483.001 195.685ZM451.176 183.791L458.177 165.057L458.176 165.056L451.176 183.791ZM451.164 183.787L458.165 165.052C457.855 164.936 457.542 164.828 457.226 164.728L451.164 183.787ZM451.153 183.783L445.076 202.838C445.081 202.839 445.086 202.841 445.091 202.842L451.153 183.783ZM446.454 182.277L440.32 201.313C440.326 201.315 440.331 201.317 440.336 201.319L446.454 182.277ZM446.451 182.276L452.585 163.24C452.58 163.238 452.574 163.237 452.569 163.235L446.451 182.276ZM397.941 171.501L397.821 191.501L397.821 191.501L397.941 171.501ZM351.603 195.915L335.707 183.779L335.707 183.779L351.603 195.915ZM322.314 216.756L313.459 198.823L313.459 198.823L322.314 216.756ZM275.822 234.949L269.673 215.918L275.822 234.949ZM180.91 258.712L177.291 239.042C167.446 240.854 160.456 249.665 160.933 259.665L180.91 258.712ZM180.957 259.702L160.98 260.654C161.457 270.654 169.253 278.76 179.226 279.627L180.957 259.702ZM336.902 273.251L342.941 254.185C341.541 253.741 340.097 253.453 338.633 253.326L336.902 273.251ZM854.288 216.374C880.072 244.597 905.642 272.552 930.574 295.582L957.716 266.2C934.265 244.538 909.877 217.916 883.819 189.394L854.288 216.374ZM853.269 215.259L854.288 216.374L883.819 189.394L882.8 188.279L853.269 215.259ZM773.859 132.217C801.119 158.189 827.387 186.929 853.269 215.259L882.8 188.279C857.088 160.135 829.887 130.349 801.451 103.257L773.859 132.217ZM603.5 41.5C661.954 41.5 717.877 78.8789 773.859 132.217L801.451 103.257C744.54 49.0338 678.63 1.49995 603.5 1.5L603.5 41.5ZM536.777 58.9099C557.63 48.6948 582.379 41.5 603.5 41.5L603.5 1.5C574.506 1.50002 543.658 10.9976 519.18 22.9881L536.777 58.9099ZM511.361 74.5508C517.748 69.4382 526.478 63.9546 536.777 58.9099L519.18 22.9882C506.819 29.0432 495.485 36.0222 486.364 43.3236L511.361 74.5508ZM501.974 84.262C501.949 84.3219 502.048 84.0685 502.42 83.5025C502.786 82.9455 503.344 82.1956 504.154 81.2663C505.795 79.3835 508.17 77.1055 511.361 74.5508L486.364 43.3236C477.778 50.1965 469.108 58.9589 464.952 69.1167L501.974 84.262ZM475.428 95.0109L475.89 95.2002L491.036 58.1784L490.573 57.9892L475.428 95.0109ZM490.11 95.2004L490.573 95.011L475.428 57.9891L474.965 58.1784L490.11 95.2004ZM454.639 74.5509C457.831 77.1056 460.206 79.3836 461.846 81.2664C462.656 82.1957 463.214 82.9456 463.58 83.5026C463.952 84.0686 464.051 84.322 464.027 84.262L501.048 69.1168C496.893 58.959 488.222 50.1966 479.637 43.3237L454.639 74.5509ZM429.224 58.91C439.522 63.9547 448.252 69.4383 454.639 74.5509L479.636 43.3237C470.515 36.0223 459.181 29.0433 446.82 22.9882L429.224 58.91ZM362.5 41.5001C383.621 41.5001 408.371 48.6949 429.224 58.91L446.82 22.9882C422.342 10.9977 391.494 1.50011 362.5 1.50009L362.5 41.5001ZM192.141 132.217C248.123 78.879 304.047 41.5001 362.5 41.5001L362.5 1.50009C287.371 1.50004 221.46 49.0339 164.549 103.257L192.141 132.217ZM112.732 215.259C138.614 186.929 164.882 158.189 192.141 132.217L164.549 103.257C136.114 130.349 108.913 160.135 83.2007 188.279L112.732 215.259ZM111.713 216.374L112.732 215.259L83.2007 188.279L82.182 189.394L111.713 216.374ZM35.4265 295.582C60.3586 272.552 85.9285 244.597 111.713 216.374L82.182 189.394C56.124 217.916 31.7354 244.538 8.28503 266.2L35.4265 295.582ZM253.364 366.326C167.079 332.006 82.7151 290.794 31.2973 263.26L12.4142 298.522C64.9188 326.639 150.659 368.523 238.581 403.494L253.364 366.326ZM483 427.5C427.167 427.5 340.952 401.165 253.364 366.326L238.581 403.494C325.941 438.242 418.646 467.5 483 467.5L483 427.5ZM712.636 366.326C625.049 401.164 538.833 427.5 483 427.5V467.5C547.354 467.5 640.06 438.242 727.42 403.494L712.636 366.326ZM934.703 263.26C883.285 290.794 798.922 332.006 712.636 366.326L727.42 403.494C815.341 368.523 901.082 326.638 953.586 298.522L934.703 263.26ZM501.073 66.6972C496.615 57.2911 488.468 49.1124 480.261 42.543L455.264 73.7703C461.711 78.9312 464.317 82.5413 464.928 83.8296L501.073 66.6972ZM485.739 42.5429C477.533 49.1123 469.386 57.291 464.928 66.6972L501.073 83.8296C501.684 82.5413 504.289 78.9311 510.736 73.7702L485.739 42.5429ZM518.74 22.0901C506.328 28.1704 494.929 35.1868 485.739 42.5429L510.736 73.7701C517.192 68.6028 525.987 63.0818 536.337 58.0119L518.74 22.0901ZM603.5 0.5C574.31 0.500019 543.309 10.0552 518.74 22.0901L536.337 58.0119C557.281 47.7524 582.183 40.5 603.5 40.5L603.5 0.5ZM802.141 102.533C745.207 48.2875 679.047 0.49995 603.5 0.5L603.5 40.5C662.371 40.5 718.544 78.1329 774.549 131.493L802.141 102.533ZM883.526 187.591C857.821 159.455 830.601 129.649 802.141 102.533L774.549 131.493C801.834 157.489 828.121 186.25 853.994 214.571L883.526 187.591ZM883.561 187.629L883.559 187.627L853.961 214.534L853.963 214.536L883.561 187.629ZM884.557 188.72L883.528 187.593L853.996 214.573L855.026 215.699L884.557 188.72ZM958.89 265.923C935.329 244.218 910.809 217.454 884.557 188.72L855.026 215.7C880.999 244.129 906.72 272.248 931.788 295.342L958.89 265.923ZM959.406 266.398L958.889 265.922L931.789 295.342L932.306 295.819L959.406 266.398ZM954.687 299.067L955.307 298.735L936.406 263.482L935.786 263.814L954.687 299.067ZM727.789 404.423C816.101 369.297 902.209 327.201 954.686 299.067L935.787 263.814C884.403 291.361 799.677 332.782 713.006 367.256L727.789 404.423ZM483 468.5C547.567 468.5 640.435 439.169 727.789 404.423L713.006 367.256C625.424 402.091 539.047 428.5 483 428.5V468.5ZM238.211 404.424C325.566 439.169 418.434 468.5 483 468.5L483 428.5C426.954 428.5 340.576 402.091 252.995 367.256L238.211 404.424ZM11.3141 299.067C63.7914 327.201 149.9 369.297 238.211 404.424L252.995 367.256C166.324 332.782 81.5974 291.361 30.214 263.814L11.3141 299.067ZM10.6942 298.735L11.3137 299.067L30.2144 263.814L29.5949 263.482L10.6942 298.735ZM7.1108 265.922L6.5938 266.399L33.6953 295.818L34.2123 295.342L7.1108 265.922ZM81.4438 188.72C55.1912 217.455 30.6712 244.218 7.11058 265.923L34.2125 295.342C59.2808 272.248 85.0017 244.129 110.975 215.7L81.4438 188.72ZM82.4732 187.593L81.4437 188.72L110.975 215.7L112.004 214.573L82.4732 187.593ZM163.859 102.533C135.399 129.65 108.178 159.457 82.473 187.593L112.004 214.573C137.878 186.251 164.166 157.489 191.451 131.493L163.859 102.533ZM362.5 0.500092C286.954 0.500042 220.794 48.2876 163.859 102.533L191.451 131.493C247.457 78.133 303.63 40.5001 362.5 40.5001L362.5 0.500092ZM447.26 22.0902C422.692 10.0553 391.691 0.500111 362.5 0.500092L362.5 40.5001C383.818 40.5001 408.72 47.7525 429.664 58.012L447.26 22.0902ZM480.261 42.543C471.072 35.1869 459.673 28.1705 447.26 22.0902L429.664 58.0119C440.014 63.0819 448.809 68.6029 455.264 73.7702L480.261 42.543ZM368.295 208.659C378.414 195.404 387.725 192.44 397.815 192.501L398.055 152.502C375.336 152.365 354.193 161.213 336.501 184.386L368.295 208.659ZM331.611 235.586C345.547 228.705 359.684 219.937 368.295 208.659L336.501 184.386C333.765 187.97 326.708 193.397 313.902 199.72L331.611 235.586ZM282.278 254.932C299.78 249.277 317.019 242.791 331.611 235.586L313.902 199.72C301.719 205.735 286.495 211.534 269.98 216.869L282.278 254.932ZM188.426 278.67C212.891 274.014 248.938 265.704 282.278 254.932L269.98 216.869C238.617 227.003 204.253 234.94 180.949 239.375L188.426 278.67ZM338.775 252.335L186.419 239.097L182.957 278.947L335.313 292.184L338.775 252.335ZM338.828 252.339L338.773 252.334L335.314 292.185L335.369 292.189L338.828 252.339ZM343.189 253.214L343.136 253.197L331.062 291.331L331.114 291.348L343.189 253.214ZM489.04 299.409L343.191 253.214L331.113 291.348L476.962 337.542L489.04 299.409ZM622.811 253.214L476.962 299.409L489.04 337.542L634.889 291.348L622.811 253.214ZM622.859 253.199L622.806 253.216L634.893 291.346L634.946 291.329L622.859 253.199ZM627.229 252.334L627.174 252.339L630.631 292.189L630.686 292.185L627.229 252.334ZM779.582 239.097L627.226 252.335L630.688 292.184L783.045 278.947L779.582 239.097ZM683.723 254.932C717.064 265.704 753.11 274.014 777.575 278.67L785.052 239.375C761.748 234.94 727.384 227.003 696.021 216.869L683.723 254.932ZM634.391 235.586C648.983 242.791 666.221 249.277 683.723 254.932L696.021 216.869C679.506 211.534 664.282 205.735 652.099 199.72L634.391 235.586ZM597.707 208.659C606.317 219.937 620.454 228.705 634.391 235.586L652.099 199.72C639.293 193.397 632.236 187.97 629.5 184.386L597.707 208.659ZM568.186 192.501C578.276 192.44 587.587 195.404 597.707 208.659L629.5 184.386C611.809 161.213 590.666 152.365 567.946 152.502L568.186 192.501ZM525.943 202.28C543.795 196.546 556.771 192.57 568.186 192.501L567.946 152.502C549.171 152.615 529.951 158.98 513.71 164.196L525.943 202.28ZM521.241 203.786C522.826 203.281 524.399 202.776 525.943 202.28L513.71 164.196C512.161 164.694 510.626 165.187 509.087 165.678L521.241 203.786ZM490.177 215.421L522.166 203.466L508.163 165.998L476.174 177.953L490.177 215.421ZM464.266 203.22L464.441 203.689L501.91 189.685L501.735 189.217L464.266 203.22ZM501.56 203.689L501.735 203.22L464.266 189.217L464.091 189.685L501.56 203.689ZM443.835 203.466L475.824 215.421L489.827 177.953L457.839 165.998L443.835 203.466ZM440.059 202.28C441.602 202.776 443.175 203.281 444.76 203.786L456.914 165.678C455.375 165.187 453.84 164.694 452.291 164.196L440.059 202.28ZM397.815 192.501C409.23 192.57 422.206 196.546 440.059 202.28L452.291 164.196C436.051 158.98 416.83 152.615 398.055 152.502L397.815 192.501ZM463.934 312.961L463.783 313.438L501.916 325.516L502.067 325.039L463.934 312.961ZM502.218 313.438L502.067 312.961L463.934 325.039L464.085 325.516L502.218 313.438ZM623.06 254.185L477.113 300.41L489.191 338.543L635.138 292.318L623.06 254.185ZM783.313 239.777L627.368 253.326L630.83 293.176L786.775 279.627L783.313 239.777ZM765.114 257.76L765.067 258.75L805.021 260.654L805.068 259.664L765.114 257.76ZM684.03 253.98C719.022 265.286 757.029 273.885 781.472 278.382L788.71 239.042C765.518 234.775 729.269 226.561 696.328 215.918L684.03 253.98ZM634.833 234.689C649.365 241.864 666.554 248.334 684.03 253.98L696.328 215.918C679.838 210.59 664.664 204.808 652.542 198.823L634.833 234.689ZM598.501 208.052C606.965 219.138 620.926 227.823 634.833 234.689L652.542 198.823C639.763 192.513 632.884 187.17 630.295 183.779L598.501 208.052ZM568.18 191.501C578.586 191.438 588.193 194.549 598.501 208.052L630.295 183.779C612.414 160.358 590.975 151.363 567.94 151.502L568.18 191.501ZM525.668 201.318C543.468 195.599 556.6 191.571 568.18 191.501L567.94 151.502C549.005 151.616 529.643 158.027 513.432 163.235L525.668 201.318ZM525.681 201.313L525.684 201.313L513.416 163.24L513.413 163.241L525.681 201.313ZM520.925 202.838C522.522 202.329 524.108 201.819 525.665 201.319L513.43 163.236C511.867 163.738 510.321 164.235 508.772 164.729L520.925 202.838ZM520.899 202.846L520.911 202.842L508.787 164.724L508.775 164.728L520.899 202.846ZM521.826 202.526L521.838 202.522L507.836 165.052L507.825 165.056L521.826 202.526ZM490.002 214.419L521.827 202.525L507.824 165.057L475.999 176.95L490.002 214.419ZM444.174 202.525L475.999 214.419L490.002 176.95L458.177 165.057L444.174 202.525ZM444.164 202.522L444.175 202.526L458.176 165.056L458.165 165.052L444.164 202.522ZM445.091 202.842L445.102 202.846L457.226 164.728L457.215 164.724L445.091 202.842ZM440.336 201.319C441.893 201.819 443.48 202.329 445.076 202.838L457.229 164.729C455.681 164.235 454.135 163.738 452.572 163.236L440.336 201.319ZM440.317 201.313L440.32 201.313L452.588 163.241L452.585 163.24L440.317 201.313ZM397.821 191.501C409.401 191.571 422.534 195.599 440.334 201.318L452.569 163.235C436.358 158.027 416.996 151.616 398.061 151.502L397.821 191.501ZM367.5 208.052C377.809 194.549 387.416 191.438 397.821 191.501L398.061 151.502C375.026 151.363 353.587 160.358 335.707 183.779L367.5 208.052ZM331.168 234.689C345.075 227.823 359.036 219.138 367.5 208.052L335.707 183.779C333.117 187.17 326.239 192.513 313.459 198.823L331.168 234.689ZM281.971 253.98C299.448 248.334 316.636 241.864 331.168 234.689L313.459 198.823C301.337 204.808 286.163 210.59 269.673 215.918L281.971 253.98ZM184.529 278.382C208.973 273.885 246.98 265.286 281.971 253.98L269.673 215.918C236.732 226.561 200.483 234.775 177.291 239.042L184.529 278.382ZM200.935 258.75L200.887 257.76L160.933 259.665L160.98 260.654L200.935 258.75ZM338.633 253.326L182.688 239.777L179.226 279.627L335.171 293.176L338.633 253.326ZM488.889 300.41L342.941 254.185L330.863 292.318L476.811 338.543L488.889 300.41Z" fill="#EB2828"/>
</svg>
